<?xml version="1.0" standalone="no"?>
<!DOCTYPE svg PUBLIC "-//W3C//DTD SVG 20010904//EN"
 "http://www.w3.org/TR/2001/REC-SVG-20010904/DTD/svg10.dtd">
<svg version="1.0" xmlns="http://www.w3.org/2000/svg"
 width="1920.000000pt" height="1920.000000pt" viewBox="0 0 1920.000000 1920.000000"
 preserveAspectRatio="xMidYMid meet">
<metadata>
Created by potrace 1.11, written by Peter Selinger 2001-2013
</metadata>
<g transform="translate(0.000000,1920.000000) scale(0.100000,-0.100000)"
fill="#000000" stroke="none">
<path d="M2310 19193 c-462 -46 -823 -170 -1175 -401 -165 -108 -260 -185
-401 -326 -399 -399 -633 -877 -716 -1461 -19 -133 -19 -14677 0 -14810 58
-406 181 -742 390 -1060 108 -165 185 -260 326 -401 399 -399 877 -633 1461
-716 133 -19 14677 -19 14810 0 406 58 742 181 1060 390 165 108 260 185 401
326 399 399 633 877 716 1461 19 133 19 14677 0 14810 -58 406 -181 742 -390
1060 -108 165 -185 260 -326 401 -141 141 -236 218 -401 326 -313 206 -612
317 -1045 390 -60 10 -1555 13 -7375 14 -4015 0 -7316 -1 -7335 -3z m5930
-1843 c248 -71 412 -236 509 -513 27 -78 31 -101 31 -199 0 -170 -32 -253
-218 -553 -57 -93 -132 -213 -167 -265 -34 -52 -127 -206 -206 -342 -78 -137
-146 -248 -149 -248 -6 0 -91 136 -462 745 -154 252 -240 418 -263 510 -19 76
-19 251 0 333 65 276 278 483 560 546 95 21 264 15 365 -14z m553 -4847 c2
-1044 7 -1911 12 -1926 l8 -28 64 70 c85 93 232 215 368 306 270 181 610 300
985 347 161 20 586 17 735 -6 298 -45 540 -131 745 -263 220 -143 427 -372
536 -594 l27 -57 70 92 c39 50 125 145 191 212 340 340 741 536 1251 611 171
25 608 24 790 -1 242 -33 479 -103 666 -196 216 -109 442 -309 578 -514 213
-321 334 -727 371 -1246 6 -92 10 -912 10 -2227 l0 -2083 -700 0 -700 0 0
2100 c0 1839 -2 2113 -15 2210 -40 285 -145 500 -310 632 -233 188 -727 262
-1115 166 -194 -47 -350 -137 -501 -288 -139 -139 -255 -326 -318 -517 -21
-62 -21 -63 -21 -2183 l0 -2120 -695 0 -695 0 -3 2118 c-3 1958 -4 2123 -20
2202 -97 474 -333 715 -792 806 -129 26 -442 26 -580 0 -188 -35 -347 -97
-490 -191 -127 -84 -302 -282 -374 -422 l-21 -42 0 -2236 0 -2235 -697 0
c-384 0 -703 4 -709 8 -6 4 -25 143 -43 322 -18 173 -35 323 -37 332 -4 13
-23 -2 -79 -65 -168 -186 -390 -355 -620 -470 -210 -104 -419 -170 -670 -209
-115 -18 -185 -22 -390 -22 -336 -1 -515 25 -790 115 -693 227 -1261 830
-1560 1653 -316 873 -353 2153 -89 3076 238 833 745 1487 1387 1790 197 93
422 158 674 197 140 21 575 24 713 5 511 -72 894 -254 1238 -586 l112 -109 0
1682 0 1681 750 0 749 0 4 -1897z"/>
<path d="M7954 16919 c-57 -16 -127 -71 -151 -119 -18 -37 -22 -61 -23 -139 0
-112 19 -161 82 -216 177 -151 453 -20 452 214 -1 78 -18 124 -71 181 -70 78
-185 109 -289 79z"/>
<path d="M5782 10519 c-167 -23 -353 -84 -481 -158 -225 -132 -424 -357 -550
-621 -120 -253 -205 -588 -241 -950 -32 -319 -30 -783 5 -1063 68 -554 238
-958 525 -1248 186 -189 378 -290 656 -346 120 -24 430 -24 559 0 202 37 395
112 548 214 151 100 328 294 437 479 l50 85 0 1415 0 1415 -21 42 c-37 72
-124 199 -193 279 -201 235 -467 384 -793 443 -106 20 -400 28 -501 14z"/>
</g>
</svg>
